<svg width="211" height="164" viewBox="0 0 211 164" fill="none" xmlns="http://www.w3.org/2000/svg">
<g clip-path="url(#clip0_39_142)">
<path d="M33.0306 38.6301C33.0306 40.7878 34.7755 42.5355 36.9259 42.5355C39.0764 42.5355 40.8212 40.7878 40.8212 38.6301C40.8212 36.4724 39.0764 34.7247 36.9259 34.7247C34.7755 34.7247 33.0306 36.4724 33.0306 38.6301Z" fill="#000A12" stroke="white" stroke-width="0.75"/>
<path d="M74.4028 25.3615L74.6679 25.0962L74.4028 25.3615C71.2579 22.22 67.001 20.4568 62.5619 20.4568H62.4424H42.5784C38.1474 20.4568 33.8992 22.2209 30.7653 25.3615L23.6898 32.4533C18.5092 37.6461 13.125 37.6165 7.14871 37.5835C6.67041 37.5809 6.18832 37.5783 5.70224 37.5783C2.60532 37.5783 0.389633 40.1169 0.37532 42.892C0.373901 43.1546 0.444946 43.5199 0.592834 43.981C0.738983 44.4366 0.952393 44.9625 1.21732 45.5384C1.74712 46.69 2.47189 48.0178 3.24403 49.3439C4.25812 51.0857 5.3293 52.7849 6.14619 54.0807C6.58275 54.7732 6.94667 55.3505 7.19046 55.7575L6.86874 55.9502L7.19051 55.7576C8.76024 58.3802 11.4514 60.7861 14.5366 62.5372C17.6219 64.2883 21.0644 65.3637 24.1154 65.3637H41.1966H41.5716V65.7387V77.2828V77.4692L41.423 77.5818C33.443 83.6266 28.6945 93.7267 30.6097 104.913C31.9777 112.899 36.9525 119.806 43.7119 123.965L43.8652 124.059L43.8875 124.238L45.1536 134.391L45.2 134.764L44.8279 134.81C39.5345 135.471 35.0016 138.58 32.4348 142.983L32.4347 142.983C30.3803 146.505 33.0087 150.971 37.0942 150.971H58.2774C61.2138 150.971 63.5961 148.585 63.5961 145.639V128.515V128.14H63.9711H70.5043C73.0592 128.14 74.6739 128.988 75.8902 130.365C76.8769 131.481 77.5982 132.95 78.3678 134.516C78.5213 134.828 78.6768 135.144 78.8366 135.463L79.0145 135.817L78.6511 135.975C75.2508 137.454 72.436 140.032 70.6548 143.263C68.7605 146.701 71.472 150.971 75.4433 150.971H146.53C151.039 150.971 154.696 147.307 154.696 142.786C154.696 138.265 151.039 134.6 146.531 134.6C146.531 134.6 146.53 134.6 146.53 134.6L129.859 134.643L129.283 134.645L129.514 134.117C131.481 129.635 131.921 126.198 131.921 122.811C131.921 115.233 128.349 107.721 123.615 102.973C122.22 101.586 119.383 99.5203 115.66 97.0619C111.947 94.6096 107.38 91.7846 102.55 88.8815C94.637 84.1253 86.0253 79.165 79.3117 75.2981C77.8297 74.4444 76.4401 73.6441 75.171 72.9109L74.9836 72.8026V72.5862V71.4462V71.0712H75.3586C76.2028 71.0712 77.0615 71.0084 77.9329 70.8784C81.8301 70.2959 85.3639 67.963 87.9281 64.7601C90.4924 61.5573 92.0648 57.5117 92.0648 53.545V49.0613C92.0648 45.2214 90.5432 41.539 87.8346 38.8243L88.1001 38.5594L87.8346 38.8243L74.5071 25.4657L74.5067 25.4652L74.4028 25.3615ZM71.0117 28.9719L70.7463 29.2368L71.0118 28.9719L84.3397 42.3305C84.3397 42.3306 84.3397 42.3306 84.3397 42.3306C86.1804 44.1749 87.121 46.5943 87.121 49.0627V53.6902C87.121 59.9282 82.5952 66.053 75.3835 66.053C68.6624 66.053 63.5961 60.6306 63.5961 54.3247V25.933V25.5091L64.0169 25.5609C66.686 25.889 69.1641 27.1203 71.0117 28.9719ZM146.544 139.557H146.545C148.309 139.557 149.752 141.007 149.752 142.786C149.752 144.565 148.307 146.014 146.53 146.014H120.739H119.609L120.515 145.339C122.129 144.134 123.001 143.429 123.733 142.686C124.454 141.952 125.045 141.175 126.074 139.82L126.122 139.757L126.234 139.61L126.419 139.609C128.244 139.604 128.55 139.604 129.523 139.601C131.013 139.597 134.069 139.589 146.544 139.557ZM84.2374 138.922C84.7571 138.708 85.2806 138.492 85.8036 138.268L84.2845 135.258C79.4544 127.658 78.8909 115.265 87.1971 106.67L83.7006 103.165C78.2318 108.799 75.5575 116.382 75.8291 123.92L75.8503 124.508L75.3081 124.279C73.7814 123.632 72.1942 123.183 70.5043 123.183H70.4819H70.4596H70.4373H70.4151H70.393H70.3709H70.3489H70.3269H70.305H70.2832H70.2614H70.2397H70.218H70.1964H70.1748H70.1533H70.1319H70.1105H70.0892H70.0679H70.0467H70.0255H70.0044H69.9834H69.9624H69.9415H69.9206H69.8998H69.8791H69.8584H69.8377H69.8172H69.7966H69.7762H69.7557H69.7354H69.7151H69.6948H69.6746H69.6545H69.6344H69.6144H69.5944H69.5745H69.5546H69.5348H69.515H69.4953H69.4757H69.4561H69.4365H69.417H69.3976H69.3782H69.3589H69.3396H69.3204H69.3012H69.2821H69.263H69.244H69.225H69.2061H69.1872H69.1684H69.1497H69.131H69.1123H69.0937H69.0751H69.0566H69.0382H69.0198H69.0014H68.9831H68.9649H68.9467H68.9285H68.9104H68.8924H68.8744H68.8564H68.8385H68.8207H68.8029H68.7851H68.7674H68.7497H68.7321H68.7146H68.6971H68.6796H68.6622H68.6448H68.6275H68.6102H68.593H68.5758H68.5587H68.5416H68.5246H68.5076H68.4906H68.4737H68.4569H68.4401H68.4233H68.4066H68.39H68.3733H68.3568H68.3402H68.3238H68.3073H68.2909H68.2746H68.2583H68.242H68.2258H68.2096H68.1935H68.1774H68.1614H68.1454H68.1294H68.1135H68.0977H68.0819H68.0661H68.0504H68.0347H68.019H68.0034H67.9879H67.9723H67.9569H67.9414H67.926H67.9107H67.8954H67.8801H67.8649H67.8497H67.8346H67.8195H67.8044H67.7894H67.7744H67.7595H67.7446H67.7297H67.7149H67.7001H67.6854H67.6707H67.6561H67.6414H67.6269H67.6123H67.5978H67.5834H67.569H67.5546H67.5402H67.5259H67.5117H67.4975H67.4833H67.4691H67.455H67.4409H67.4269H67.4129H67.3989H67.385H67.3711H67.3573H67.3435H67.3297H67.3159H67.3022H67.2886H67.2749H67.2613H67.2478H67.2343H67.2208H67.2073H67.1939H67.1805H67.1672H67.1539H67.1406H67.1273H67.1141H67.101H67.0878H67.0747H67.0617H67.0486H67.0356H67.0227H67.0097H66.9968H66.9839H66.9711H66.9583H66.9455H66.9328H66.9201H66.9074H66.8948H66.8822H66.8696H66.8571H66.8446H66.8321H66.8196H66.8072H66.7949H66.7825H66.7702H66.7579H66.7456H66.7334H66.7212H66.709H66.6969H66.6848H66.6727H66.6607H66.6487H66.6367H66.6247H66.6128H66.6009H66.589H66.5772H66.5654H66.5536H66.5418H66.5301H66.5184H66.5067H66.4951H66.4835H66.4719H66.4603H66.4488H66.4373H66.4258H66.4144H66.403H66.3916H66.3802H66.3689H66.3575H66.3462H66.335H66.3237H66.3125H66.3014H66.2902H66.2791H66.268H66.2569H66.2458H66.2348H66.2238H66.2128H66.2018H66.1909H66.18H66.1691H66.1583H66.1474H66.1366H66.1258H66.1151H66.1043H66.0936H66.0829H66.0722H66.0616H66.051H66.0404H66.0298H66.0192H66.0087H65.9982H65.9877H65.9772H65.9668H65.9563H65.9459H65.9355H65.9252H65.9148H65.9045H65.8942H65.8839H65.8737H65.8635H65.8532H65.843H65.8329H65.8227H65.8126H65.8025H65.7924H65.7823H65.7722H65.7622H65.7522H65.7422H65.7322H65.7222H65.7123H65.7023H65.6924H65.6825H65.6727H65.6628H65.653H65.6432H65.6334H65.6236H65.6138H65.6041H65.5943H65.5846H65.5749H65.5652H65.5556H65.5459H65.5363H65.5267H65.5171H65.5075H65.4979H65.4883H65.4788H65.4693H65.4598H65.4503H65.4408H65.4313H65.4219H65.4124H65.403H65.3936H65.3842H65.3748H65.3655H65.3561H65.3468H65.3375H65.3281H65.3188H65.3096H65.3003H65.291H65.2818H65.2726H65.2633H65.2541H65.2449H65.2357H65.2266H65.2174H65.2082H65.1991H65.19H65.1809H65.1718H65.1627H65.1536H65.1445H65.1354H65.1264H65.1173H65.1083H65.0993H65.0903H65.0813H65.0723H65.0633H65.0543H65.0453H65.0364H65.0274H65.0185H65.0096H65.0006H64.9917H64.9828H64.9739H64.965H64.9562H64.9473H64.9384H64.9296H64.9207H64.9119H64.903H64.8942H64.8854H64.8766H64.8678H64.859H64.8502H64.8414H64.8326H64.8238H64.815H64.8063H64.7975H64.7888H64.78H64.7713H64.7625H64.7538H64.7451H64.7363H64.7276H64.7189H64.7102H64.7015H64.6928H64.6841H64.6754H64.6667H64.658H64.6493H64.6406H64.6319H64.6233H64.6146H64.6059H64.5972H64.5886H64.5799H64.5712H64.5626H64.5539H64.5453H64.5366H64.528H64.5193H64.5107H64.502H64.4933H64.4847H64.4761H64.4674H64.4588H64.4501H64.4415H64.4328H64.4242H64.4155H64.4069H64.3982H64.3896H64.3809H64.3723H64.3636H64.355H64.3463H64.3377H64.329H64.3203H64.3117H64.303H64.2944H64.2857H64.277H64.2683H64.2597H64.251H64.2423H64.2336H64.225H64.2163H64.2076H64.1989H64.1902H64.1815H64.1728H64.1641H64.1553H64.1466H64.1379H64.1292H64.1204H64.1117H64.103H64.0942H64.0854H64.0767H64.0679H64.0592H64.0504H64.0416H64.0328H64.024H64.0152H64.0064H63.9976H63.9888H63.98H63.9711H63.5961V122.808V117.479H58.6524V117.503V117.582V117.661V117.739V117.817V117.895V117.973V118.05V118.127V118.204V118.28V118.357V118.433V118.508V118.584V118.659V118.734V118.808V118.883V118.957V119.031V119.104V119.177V119.25V119.323V119.396V119.468V119.54V119.612V119.683V119.755V119.826V119.896V119.967V120.037V120.107V120.177V120.246V120.316V120.385V120.453V120.522V120.59V120.658V120.726V120.794V120.861V120.929V120.995V121.062V121.129V121.195V121.261V121.327V121.392V121.458V121.523V121.588V121.652V121.717V121.781V121.845V121.909V121.972V122.036V122.099V122.162V122.225V122.287V122.35V122.412V122.474V122.535V122.597V122.658V122.719V122.78V122.841V122.901V122.962V123.022V123.082V123.142V123.201V123.261V123.32V123.379V123.438V123.496V123.555V123.613V123.671V123.729V123.786V123.844V123.901V123.959V124.016V124.072V124.129V124.185V124.242V124.298V124.354V124.41V124.465V124.521V124.576V124.631V124.686V124.741V124.796V124.85V124.905V124.959V125.013V125.067V125.12V125.174V125.227V125.281V125.334V125.387V125.44V125.492V125.545V125.597V125.649V125.702V125.753V125.805V125.857V125.909V125.96V126.011V126.062V126.113V126.164V126.215V126.266V126.316V126.367V126.417V126.467V126.517V126.567V126.617V126.666V126.716V126.765V126.815V126.864V126.913V126.962V127.011V127.06V127.108V127.157V127.205V127.253V127.302V127.35V127.398V127.446V127.493V127.541V127.589V127.636V127.684V127.731V127.778V127.825V127.872V127.919V127.966V128.013V128.06V128.106V128.153V128.199V128.246V128.292V128.338V128.384V128.43V128.476V128.522V128.568V128.614V128.659V128.705V128.75V128.796V128.841V128.887V128.932V128.977V129.022V129.067V129.112V129.157V129.202V129.247V129.292V129.336V129.381V129.426V129.47V129.515V129.559V129.604V129.648V129.692V129.737V129.781V129.825V129.869V129.913V129.957V130.001V130.045V130.089V130.133V130.177V130.221V130.265V130.309V130.353V130.396V130.44V130.484V130.527V130.571V130.615V130.658V130.702V130.745V130.789V130.832V130.876V130.919V130.963V131.006V131.05V131.093V131.137V131.18V131.224V131.267V131.311V131.354V131.397V131.441V131.484V131.528V131.571V131.614V131.658V131.701V131.745V131.788V131.832V131.875V131.919V131.962V132.006V132.049V132.093V132.136V132.18V132.223V132.267V132.311V132.354V132.398V132.442V132.485V132.529V132.573V132.617V132.661V132.705V132.748V132.792V132.836V132.88V132.925V132.969V133.013V133.057V133.101V133.145V133.19V133.234V133.278V133.323V133.367V133.412V133.457V133.501V133.546V133.591V133.635V133.68V133.725V133.77V133.815V133.86V133.906V133.951V133.996V134.042V134.087V134.132V134.178V134.224V134.269V134.315V134.361V134.407V134.453V134.499V134.545V134.591V134.638V134.684V134.731V134.777V134.824V134.871V134.917V134.964V135.011V135.058V135.106V135.153V135.2V135.248V135.295V135.343V135.391V135.439V135.487V135.535V135.583V135.631V135.68V135.728V135.777V135.825V135.874V135.923V135.972V136.021V136.07V136.12V136.169V136.219V136.269V136.319V136.368V136.419V136.469V136.519V136.57V136.62V136.671V136.722V136.773V136.824V136.875V136.926V136.978V137.03V137.081V137.133V137.185V137.238V137.29V137.342V137.395V137.448V137.501V137.554V137.607V137.66V137.714V137.768V137.821V137.875V137.929V137.984V138.038V138.093V138.147V138.202V138.257V138.313V138.368V138.424V138.479V138.535V138.591V138.648V138.704V138.761V138.817V138.874V138.931V138.989V139.046V139.104V139.162V139.22V139.278V139.336V139.395V139.453V139.512V139.571V139.631V139.69V139.75V139.81V139.87V139.93V139.991V140.051V140.112V140.173V140.234V140.296V140.357V140.419V140.481V140.544V140.606V140.669V140.732V140.795V140.858V140.921V140.985V141.049V141.113V141.178V141.242V141.307V141.372V141.437V141.503V141.569V141.634V141.701V141.767V141.834V141.9V141.968V142.035V142.102V142.17V142.238V142.306V142.375V142.444V142.512V142.582V142.651V142.721V142.791V142.861V142.931V143.002V143.073V143.144V143.215V143.287V143.359V143.431V143.504V143.576V143.649V143.722V143.796V143.87V143.944V144.018V144.092V144.167V144.242V144.317V144.393V144.469V144.545V144.621V144.698V144.775V144.852V144.93V145.007V145.085V145.164V145.242V145.321V145.4V145.48V145.56V145.64V146.015H58.2774H58.208H58.1388H58.0701H58.0016H57.9335H57.8657H57.7982H57.7311H57.6642H57.5977H57.5315H57.4656H57.4001H57.3348H57.2699H57.2053H57.1409H57.0769H57.0132H56.9499H56.8868H56.824H56.7615H56.6993H56.6375H56.5759H56.5146H56.4536H56.393H56.3326H56.2725H56.2127H56.1531H56.0939H56.035H55.9763H55.918H55.8599H55.8021H55.7445H55.6873H55.6303H55.5736H55.5172H55.4611H55.4052H55.3496H55.2943H55.2393H55.1845H55.1299H55.0757H55.0217H54.968H54.9145H54.8613H54.8084H54.7557H54.7032H54.6511H54.5991H54.5475H54.496H54.4449H54.3939H54.3433H54.2928H54.2427H54.1927H54.143H54.0936H54.0443H53.9954H53.9466H53.8981H53.8498H53.8018H53.754H53.7064H53.6591H53.6119H53.565H53.5184H53.4719H53.4257H53.3797H53.3339H53.2883H53.243H53.1979H53.153H53.1083H53.0638H53.0195H52.9754H52.9315H52.8879H52.8444H52.8012H52.7582H52.7153H52.6727H52.6302H52.588H52.546H52.5041H52.4625H52.421H52.3797H52.3386H52.2978H52.257H52.2165H52.1762H52.136H52.0961H52.0563H52.0167H51.9773H51.938H51.8989H51.86H51.8213H51.7828H51.7444H51.7062H51.6681H51.6302H51.5925H51.555H51.5176H51.4804H51.4433H51.4064H51.3697H51.3331H51.2966H51.2604H51.2242H51.1882H51.1524H51.1167H51.0812H51.0458H51.0106H50.9755H50.9405H50.9057H50.871H50.8365H50.8021H50.7678H50.7337H50.6997H50.6659H50.6321H50.5985H50.5651H50.5317H50.4985H50.4654H50.4324H50.3996H50.3668H50.3342H50.3017H50.2693H50.2371H50.2049H50.1729H50.1409H50.1091H50.0774H50.0458H50.0143H49.9829H49.9516H49.9204H49.8893H49.8584H49.8275H49.7967H49.766H49.7354H49.7049H49.6745H49.6441H49.6139H49.5837H49.5537H49.5237H49.4938H49.464H49.4343H49.4046H49.375H49.3455H49.3161H49.2868H49.2575H49.2283H49.1992H49.1701H49.1411H49.1122H49.0834H49.0546H49.0258H48.9972H48.9686H48.94H48.9115H48.8831H48.8547H48.8264H48.7981H48.7699H48.7418H48.7136H48.6856H48.6575H48.6296H48.6016H48.5737H48.5459H48.5181H48.4903H48.4626H48.4349H48.4072H48.3796H48.352H48.3244H48.2969H48.2693H48.2419H48.2144H48.187H48.1596H48.1322H48.1048H48.0774H48.0501H48.0228H47.9955H47.9682H47.9409H47.9137H47.8864H47.8592H47.8319H47.8047H47.7775H47.7503H47.723H47.6958H47.6686H47.6414H47.6142H47.5869H47.5597H47.5325H47.5052H47.478H47.4507H47.4234H47.3961H47.3688H47.3415H47.3141H47.2868H47.2594H47.232H47.2046H47.1771H47.1497H47.1222H47.0946H47.0671H47.0395H47.0119H46.9842H46.9566H46.9288H46.9011H46.8733H46.8455H46.8176H46.7897H46.7617H46.7337H46.7057H46.6776H46.6495H46.6213H46.593H46.5647H46.5364H46.508H46.4795H46.451H46.4224H46.3938H46.3651H46.3363H46.3075H46.2786H46.2497H46.2207H46.1916H46.1624H46.1332H46.1039H46.0745H46.045H46.0155H45.9859H45.9562H45.9265H45.8966H45.8667H45.8366H45.8065H45.7764H45.7461H45.7157H45.6852H45.6547H45.624H45.5933H45.5625H45.5315H45.5005H45.4694H45.4381H45.4068H45.3753H45.3438H45.3121H45.2804H45.2485H45.2165H45.1844H45.1522H45.1199H45.0875H45.0549H45.0222H44.9895H44.9565H44.9235H44.8904H44.8571H44.8237H44.7901H44.7565H44.7227H44.6888H44.6547H44.6205H44.5862H44.5517H44.5171H44.4824H44.4475H44.4125H44.3773H44.342H44.3065H44.2709H44.2352H44.1993H44.1632H44.1271H44.0907H44.0542H44.0175H43.9807H43.9437H43.9066H43.8693H43.8318H43.7942H43.7564H43.7184H43.6803H43.642H43.6036H43.5649H43.5261H43.4871H43.448H43.4087H43.3691H43.3295H43.2896H43.2495H43.2093H43.1689H43.1283H43.0875H43.0465H43.0053H42.964H42.9224H42.8807H42.8387H42.7966H42.7543H42.7117H42.669H42.6261H42.5829H42.5396H42.496H42.4523H42.4083H42.3642H42.3198H42.2752H42.2304H42.1854H42.1401H42.0947H42.049H42.0031H41.957H41.9107H41.8641H41.8174H41.7704H41.7231H41.6757H41.628H41.5801H41.5319H41.4835H41.4349H41.3861H41.337H41.2876H41.2381H41.1883H41.1382H41.0879H41.0374H40.9866H40.9355H40.8842H40.8327H40.7809H40.7289H40.6766H40.624H40.5712H40.5181H40.4648H40.4112H40.3574H40.3033H40.2489H40.1942H40.1393H40.0841H40.0287H39.973H39.917H39.8607H39.8042H39.7473H39.6902H39.6329H39.5752H39.5173H39.4591H39.4006H39.3418H39.2827H39.2233H39.1637H39.1037H39.0435H38.983H38.9221H38.861H38.7996H38.7379H38.6759H38.6135H38.5509H38.488H38.4248H38.3613H38.2974H38.2333H38.1688H38.104H38.0389H37.9735H37.9078H37.8418H37.7755H37.7088H37.6418H37.5745H37.5069H37.4389H37.3706H37.302H37.2331H37.1638H37.0942H36.4504L36.7681 145.455C38.385 142.604 40.542 141.168 43.0201 140.362C44.9792 139.724 47.1559 139.477 49.4026 139.222C49.8393 139.173 50.2786 139.123 50.7195 139.07C50.5893 138.026 50.4643 137.024 50.3282 135.934C49.9348 132.781 49.4488 128.886 48.4752 121.08C42.0566 117.109 36.9386 112.577 35.482 104.074L35.8516 104.011L35.482 104.074C34.5625 98.7045 35.2797 94.2037 37.2804 90.2551C39.2529 86.362 42.4599 83.0315 46.5149 79.9376V63.0303V62.8382L46.6709 62.7259C49.342 60.8034 51.3293 57.9916 52.1167 54.6997H46.914C45.6181 58.0258 42.4165 60.4069 38.6372 60.4069H24.115C21.7894 60.4069 19.2123 59.5915 16.9305 58.2965C14.6487 57.0014 12.6254 55.2058 11.4286 53.2068L11.7504 53.0142L11.4286 53.2068L8.19389 47.8029L7.99352 47.4681L8.33594 47.2811C10.1068 46.3142 11.4409 44.6826 12.0144 42.705L12.0893 42.4469L12.3578 42.4348C17.9584 42.1835 23.1997 39.9539 27.1857 35.9586L34.2598 28.8671C36.4652 26.6561 39.4563 25.4139 42.5766 25.4139H58.2774H58.6524V25.7889V54.3247C58.6524 61.6043 63.3164 67.7387 69.7949 70.0457L70.0454 70.1349L70.0441 70.4007C70.0385 71.5665 70.0391 73.3472 70.0396 74.8092C70.0397 75.1118 70.0398 75.4007 70.0398 75.6678C73.607 77.7288 83.7769 83.623 93.8863 89.6099C104.167 95.6985 114.418 101.902 117.572 104.256C123.927 109.002 127.07 116.18 126.947 123.124C126.794 135.649 116.669 146.003 103.845 146.015H103.844H75.4436H74.8137L75.114 145.461C76.2589 143.349 77.934 141.99 79.8631 140.92C81.2101 140.173 82.7066 139.555 84.2374 138.922Z" fill="#000A12" stroke="white" stroke-width="0.75"/>
</g>
<g clip-path="url(#clip1_39_142)">
<path d="M197.527 28.2343C196.421 24.8975 192.475 22.8615 186.416 22.5021C180.863 22.1728 174.017 23.2475 167.14 25.5277C160.263 27.8079 154.131 31.036 149.874 34.6181C145.23 38.5267 143.282 42.5163 144.388 45.853C144.506 46.2051 144.656 46.5451 144.837 46.8688L147.325 54.3739L142.81 55.8802C142.537 55.8969 142.273 55.9851 142.045 56.1353L133.231 59.075C132.384 59.3609 131.928 60.2762 132.21 61.1239L136.303 73.4678C136.584 74.3151 137.498 74.7741 138.345 74.4932L178.945 61.0321C185.796 58.7604 191.919 55.4914 196.188 51.8249C200.804 47.8617 202.735 43.8378 201.627 40.495L197.785 28.9084C197.745 28.7905 197.692 28.6777 197.627 28.5718C197.597 28.4587 197.565 28.3463 197.527 28.2343ZM151.953 37.0914C155.904 33.7672 161.658 30.75 168.156 28.5958C174.653 26.4416 181.07 25.4233 186.224 25.7287C190.738 25.9971 193.817 27.3145 194.459 29.2516C195.102 31.1893 193.42 34.0852 189.96 36.9966C186.009 40.3215 180.255 43.3386 173.758 45.4929C167.261 47.6471 160.844 48.6654 155.689 48.3593C151.712 48.1238 148.85 47.0724 147.786 45.5006L147.782 45.4874C147.721 45.3078 147.631 45.1404 147.513 44.9927C147.492 44.9412 147.472 44.8892 147.454 44.8365C146.812 42.8988 148.494 40.0035 151.953 37.0914ZM149.418 50.4215C151.095 51.0492 153.135 51.4455 155.498 51.5856C155.552 51.5891 155.606 51.5912 155.66 51.5945L150.389 53.352L149.418 50.4215ZM135.783 61.6372L141.915 59.5928L144.995 68.884L138.86 70.9183L135.783 61.6372ZM195.843 47.6971L195.561 46.8474C195.384 46.2956 194.924 45.8807 194.357 45.7616C193.79 45.6431 193.202 45.838 192.818 46.272C192.434 46.7063 192.313 47.3137 192.501 47.862L193.23 50.0741C192.382 50.7512 191.457 51.4143 190.478 52.0549L189.019 47.6546C188.842 47.1028 188.382 46.6878 187.815 46.5688C187.247 46.4503 186.66 46.6451 186.276 47.0791C185.892 47.5134 185.771 48.1209 185.959 48.6691L187.642 53.759C186.71 54.2751 185.758 54.7661 184.727 55.2509L184.206 53.6769C183.925 52.8296 183.01 52.3707 182.163 52.6516C181.316 52.9325 180.857 53.8468 181.138 54.694L181.755 56.5544C180.703 56.9769 179.763 57.3337 178.733 57.6907L177.163 52.9476C176.985 52.3945 176.525 51.9786 175.956 51.8599C175.388 51.7404 174.799 51.9357 174.414 52.3711C174.03 52.8058 173.909 53.4146 174.097 53.9641L175.671 58.7125L172.594 59.7328L172.037 58.0521C171.756 57.2049 170.841 56.7459 169.994 57.0268C169.147 57.3077 168.688 58.222 168.969 59.0692L169.526 60.7505L166.469 61.764L164.895 57.015C164.614 56.1678 163.7 55.7088 162.853 55.9897C162.005 56.2706 161.546 57.1849 161.827 58.0322L163.402 62.7811L160.323 63.8018L159.766 62.1206C159.485 61.2734 158.571 60.8144 157.724 61.0953C156.876 61.3762 156.417 62.2905 156.698 63.1377L157.256 64.8189L154.199 65.8325L152.624 61.0835C152.343 60.2363 151.429 59.7773 150.582 60.0582C149.735 60.3391 149.276 61.2534 149.557 62.1006L151.131 66.8496L148.063 67.8667L144.981 58.5707L174.859 48.6086C175.015 48.557 175.161 48.4818 175.294 48.3858C181.96 46.117 187.892 42.9614 192.041 39.4696C193.913 37.8946 195.346 36.3062 196.318 34.753L198.559 41.5121C199.085 43.0981 198.118 45.3173 195.843 47.6971Z" fill="#FFD600"/>
<path d="M162.979 45.2897C165.926 45.4645 169.543 44.8997 173.163 43.6993C176.784 42.4988 180.022 40.7909 182.28 38.8904C183.812 37.6009 186.247 35.0274 185.335 32.2766C184.423 29.5259 180.933 28.9166 178.934 28.7981C175.987 28.6225 172.371 29.1878 168.75 30.3883C165.129 31.5887 161.891 33.296 159.633 35.1974C158.1 36.4862 155.667 39.0601 156.579 41.8109C157.491 44.5617 160.98 45.1711 162.979 45.2897ZM169.767 33.4566C177.085 31.0302 181.863 32.0762 182.267 33.2937C182.671 34.5118 179.464 38.2052 172.146 40.6316C164.828 43.0579 160.05 42.0119 159.646 40.7938C159.243 39.5763 162.449 35.883 169.767 33.4566Z" fill="#000A12"/>
</g>
<defs>
<clipPath id="clip0_39_142">
<rect width="155.071" height="155.437" fill="white" transform="matrix(-1 0 0 1 155.071 7.99585)"/>
</clipPath>
<clipPath id="clip1_39_142">
<rect width="72.3817" height="72.384" fill="white" transform="matrix(0.949184 -0.314723 0.314701 0.949191 119.497 22.7802)"/>
</clipPath>
</defs>
</svg>
